Coordinates
version=1
nRows=26
nColumns=22
inDegrees=yes

Units are S.I. units (second, meters, Newtons, ...)
If the header above contains a line with 'inDegrees', this indicates whether rotational values are in degrees (yes) or radians (no).

endheader
time	pelvis_tilt	pelvis_list	pelvis_rotation	pelvis_tx	pelvis_ty	pelvis_tz	hip_flexion_r	hip_adduction_r	hip_rotation_r	knee_angle_r	ankle_angle_r	subtalar_angle_r	hip_flexion_l	hip_adduction_l	hip_rotation_l	knee_angle_l	ankle_angle_l	subtalar_angle_l	lumbar_extension	lumbar_bending	lumbar_rotation
      3.13000000	      2.53570588	      2.15798282	     80.53878904	     -0.05597787	      1.01608188	     -0.44049131	     17.56713641	      0.36590759	     -5.15671560	    -35.90432945	     11.96740588	      5.34980350	      5.65095755	      1.26383098	    -11.62700947	    -15.88356769	     10.27959845	     -5.68032653	    -15.06440733	      1.29883005	     -2.31109775
      3.14000000	      2.59053128	      2.09414893	     80.75163874	     -0.05506029	      1.01620150	     -0.44379997	     17.69970966	      0.65844452	     -4.78103724	    -34.46915144	     11.96275681	      5.64402962	      5.42164417	      1.17521475	    -11.48066588	    -15.72037701	     10.40819415	     -5.59088088	    -15.04090969	      1.34602724	     -2.43102676
      3.15000000	      2.63613405	      2.07515325	     80.98613560	     -0.05414065	      1.01634172	     -0.44710823	     17.76511672	      0.94482802	     -4.36965150	    -33.15243119	     11.94955550	      6.11873708	      5.15910323	      1.10319811	    -11.29469288	    -15.57833087	     10.54310639	     -5.46706464	    -15.05192761	      1.37674822	     -2.55026713
      3.16000000	      2.70896471	      2.02313596	     81.24616038	     -0.05323978	      1.01638788	     -0.45042912	     17.84087904	      1.26670689	     -3.97835033	    -31.95904624	     11.83245316	      6.50140541	      4.95615468	      0.99060975	    -11.10461101	    -15.48574883	     10.71233039	     -5.38914020	    -15.00790471	      1.46101334	     -2.67807670
      3.17000000	      2.75699301	      2.03616273	     81.50654014	     -0.05232456	      1.01648641	     -0.45375901	     17.83872253	      1.55961587	     -3.54313404	    -30.91935430	     11.73957912	      7.13764970	      4.69362885	      0.91510225	    -10.89816213	    -15.40360912	     10.87570369	     -5.25821598	    -15.01809951	      1.50520753	     -2.78230833
      3.18000000	      2.81155707	      2.04022405	     81.76851301	     -0.05138019	      1.01652709	     -0.45709371	     17.83076072	      1.86291873	     -3.12039025	    -30.02618005	     11.54618569	      7.64646489	      4.46822169	      0.82124322	    -10.70819418	    -15.37550224	     11.06563611	     -5.15659413	    -14.99954848	      1.56358068	     -2.87842482
      3.19000000	      2.86711869	      2.05081834	     82.01489532	     -0.05038300	      1.01655364	     -0.46049126	     17.80112522	      2.16256369	     -2.73163952	    -29.28673864	     11.24296861	      8.07886885	      4.23555012	      0.72002658	    -10.56013907	    -15.35329044	     11.26249599	     -5.06507489	    -14.95933218	      1.62237488	     -2.95556781
      3.20000000	      2.89547182	      2.09959269	     82.23417419	     -0.04932993	      1.01659704	     -0.46390007	     17.72739008	      2.42634894	     -2.35061181	    -28.71129038	     10.89157793	      8.49855381	      3.97181520	      0.64938269	    -10.42326302	    -15.34744915	     11.45206139	     -4.95551644	    -14.94295651	      1.64123336	     -2.98916263
      3.21000000	      2.90110408	      2.17201915	     82.42919193	     -0.04821968	      1.01663595	     -0.46733387	     17.62250079	      2.65529562	     -2.01198696	    -28.29262849	     10.45918939	      8.80185330	      3.68743803	      0.60239372	    -10.30620418	    -15.34990838	     11.64275508	     -4.84167566	    -14.93236454	      1.62882362	     -2.99088285
      3.22000000	      2.89159592	      2.25058635	     82.60284275	     -0.04703759	      1.01664736	     -0.47079018	     17.50001365	      2.85613903	     -1.74200653	    -28.01131846	      9.89953429	      8.90020221	      3.40121947	      0.56655150	    -10.21022823	    -15.36284394	     11.82661569	     -4.74903157	    -14.90575428	      1.59340501	     -2.97541014
      3.23000000	      2.86612820	      2.36412093	     82.76179683	     -0.04582115	      1.01667501	     -0.47428335	     17.31955310	      3.02195183	     -1.52782243	    -27.84112581	      9.24226118	      8.75650619	      3.07463602	      0.55163878	    -10.12217685	    -15.37270334	     12.01486352	     -4.65093858	    -14.89932819	      1.53877892	     -2.93970741
      3.24000000	      2.81446899	      2.49795772	     82.91008594	     -0.04458567	      1.01668554	     -0.47782291	     17.10170506	      3.13826574	     -1.38987356	    -27.77292793	      8.51965702	      8.26358071	      2.71949925	      0.56945649	    -10.02635716	    -15.36895776	     12.20258456	     -4.55970233	    -14.89043317	      1.45606534	     -2.89138977
      3.25000000	      2.75107109	      2.63297529	     83.06552428	     -0.04334765	      1.01666471	     -0.48137184	     16.84795078	      3.22654272	     -1.28598973	    -27.75017454	      7.75628896	      7.52408149	      2.37723547	      0.59640055	     -9.91640297	    -15.38977133	     12.35914189	     -4.48927573	    -14.86623332	      1.36847903	     -2.86486598
      3.26000000	      2.65207838	      2.78530294	     83.21589416	     -0.04212684	      1.01662417	     -0.48499248	     16.55148535	      3.24613866	     -1.26452682	    -27.76869016	      7.06118193	      6.49438669	      1.99891129	      0.66908741	     -9.79494993	    -15.37587556	     12.52739145	     -4.41244229	    -14.83214383	      1.24794626	     -2.82151798
      3.27000000	      2.53363996	      2.94460251	     83.38144663	     -0.04095682	      1.01655985	     -0.48863468	     16.21068002	      3.22106692	     -1.27403810	    -27.78504511	      6.48822990	      5.35875269	      1.62421974	      0.76272316	     -9.66119072	    -15.37891227	     12.69138589	     -4.33462784	    -14.78857530	      1.12166933	     -2.79634159
      3.28000000	      2.40034289	      3.10498706	     83.54853470	     -0.03980663	      1.01647185	     -0.49231493	     15.83160745	      3.15617267	     -1.33214559	    -27.77932594	      6.09299264	      4.20673943	      1.24862215	      0.87142046	     -9.52117580	    -15.38451239	     12.86299984	     -4.25144625	    -14.72590533	      0.98823234	     -2.77330686
      3.29000000	      2.26298348	      3.26400899	     83.73354940	     -0.03870921	      1.01637520	     -0.49600058	     15.41247284	      3.06646254	     -1.42802952	    -27.72751962	      5.89303953	      3.13748812	      0.88313595	      0.98330322	     -9.35829159	    -15.40479469	     13.02682711	     -4.16270173	    -14.64855205	      0.86655029	     -2.76281820
      3.30000000	      2.13997855	      3.41073518	     83.91899179	     -0.03759219	      1.01627008	     -0.49967282	     14.96259741	      2.98942646	     -1.53217352	    -27.61537632	      5.86958605	      2.15176442	      0.54183815	      1.07052908	     -9.20702626	    -15.44995658	     13.19286453	     -4.06901251	    -14.54931395	      0.76557957	     -2.74105556
      3.31000000	      2.03357487	      3.54750738	     84.11599870	     -0.03650464	      1.01617213	     -0.50331305	     14.48877445	      2.92476108	     -1.65425621	    -27.45303000	      6.01228151	      1.30801801	      0.22336452	      1.13670846	     -9.03401593	    -15.51818255	     13.36661773	     -3.97170037	    -14.43503072	      0.69516071	     -2.72139198
      3.32000000	      1.96001258	      3.67226919	     84.30755489	     -0.03539244	      1.01609603	     -0.50690291	     13.99466886	      2.90058563	     -1.77560426	    -27.23857757	      6.26540890	      0.56070027	     -0.06909154	      1.15968940	     -8.87439385	    -15.61435332	     13.54174081	     -3.87009618	    -14.30915080	      0.66571456	     -2.68081630
      3.33000000	      1.92152256	      3.78677862	     84.48655416	     -0.03424969	      1.01606359	     -0.51042509	     13.48528213	      2.91967396	     -1.89382556	    -26.97628041	      6.57375487	     -0.08399673	     -0.33668833	      1.13927304	     -8.72714769	    -15.73964827	     13.71774211	     -3.76592940	    -14.17747111	      0.67821630	     -2.62304139
      3.34000000	      1.92553783	      3.88535313	     84.64326013	     -0.03305762	      1.01608096	     -0.51386141	     12.97722512	      2.99536294	     -1.98520459	    -26.68380616	      6.89892712	     -0.62540519	     -0.57946768	      1.06856407	     -8.60384186	    -15.87844526	     13.88640957	     -3.66226910	    -14.03752200	      0.73649959	     -2.52533976
      3.35000000	      1.96348847	      3.96679412	     84.76226435	     -0.03181729	      1.01615401	     -0.51720080	     12.48146777	      3.11331778	     -2.05342066	    -26.36845336	      7.20476746	     -1.05352114	     -0.79796505	      0.96039735	     -8.51421617	    -16.02817092	     14.03884489	     -3.56469682	    -13.88945210	      0.83315661	     -2.39205658
      3.36000000	      2.02912518	      4.03270002	     84.84684596	     -0.03054304	      1.01628869	     -0.52042001	     12.00562871	      3.26464982	     -2.09120225	    -26.04361641	      7.47161967	     -1.37665141	     -0.99451029	      0.82276774	     -8.46032691	    -16.18145411	     14.17143827	     -3.47590350	    -13.73981346	      0.95959873	     -2.22445771
      3.37000000	      2.10586977	      4.05870233	     84.89895077	     -0.02926247	      1.01642384	     -0.52348552	     11.59157956	      3.43027723	     -2.09392547	    -25.73240205	      7.71814904	     -1.55206408	     -1.12782248	      0.67060459	     -8.45727286	    -16.36100155	     14.31032912	     -3.42396490	    -13.56361714	      1.10349947	     -2.04785916
      3.38000000	      2.20069289	      4.11833256	     84.89419741	     -0.02796396	      1.01672008	     -0.52645582	     11.14031274	      3.61161635	     -2.05544958	    -25.40133400	      7.86466395	     -1.75786667	     -1.33663346	      0.51731695	     -8.47262179	    -16.46278218	     14.35247728	     -3.32047437	    -13.44303405	      1.26326846	     -1.80287006
